<?xml version="1.0" encoding="iso-8859-1"?>
<!-- Generator: Adobe Illustrator 19.0.0, SVG Export Plug-In . SVG Version: 6.00 Build 0)  -->
<svg version="1.1" id="Capa_1" xmlns="http://www.w3.org/2000/svg" xmlns:xlink="http://www.w3.org/1999/xlink" x="0px" y="0px"
	 viewBox="0 0 512.001 512.001" style="enable-background:new 0 0 512.001 512.001;" xml:space="preserve">
<g>
	<g>
		<path d="M168.959,126.775c-2.93-2.93-7.68-2.931-10.609,0l-15.292,15.292c-2.931,2.93-2.931,7.679-0.001,10.609
			c1.465,1.465,3.384,2.197,5.305,2.197c1.919,0,3.84-0.733,5.304-2.197l15.293-15.292
			C171.889,134.454,171.889,129.705,168.959,126.775z"/>
	</g>
</g>
<g>
	<g>
		<path d="M74.333,221.399c-2.929-2.931-7.679-2.93-10.609,0l-15.292,15.292c-2.93,2.93-2.93,7.68,0,10.609
			c1.465,1.465,3.386,2.197,5.305,2.197s3.84-0.733,5.305-2.197l15.291-15.292C77.263,229.078,77.263,224.328,74.333,221.399z"/>
	</g>
</g>
<g>
	<g>
		<path d="M168.959,236.691l-15.293-15.292c-2.929-2.931-7.679-2.93-10.609,0s-2.93,7.68,0.001,10.609L158.35,247.3
			c1.464,1.465,3.385,2.197,5.304,2.197s3.84-0.733,5.305-2.197C171.889,244.37,171.889,239.62,168.959,236.691z"/>
	</g>
</g>
<g>
	<g>
		<path d="M74.334,142.067l-15.291-15.292c-2.93-2.93-7.679-2.931-10.61,0c-2.93,2.93-2.93,7.679,0,10.609l15.291,15.292
			c1.465,1.465,3.385,2.197,5.305,2.197c1.919,0,3.84-0.733,5.305-2.197C77.264,149.746,77.264,144.997,74.334,142.067z"/>
	</g>
</g>
<g>
	<g>
		<path d="M359.969,141.474c-2.929-2.93-7.679-2.929-10.609,0l-8.255,8.256c-2.93,2.93-2.93,7.68,0.001,10.609
			c1.464,1.466,3.384,2.198,5.304,2.198c1.919,0,3.84-0.733,5.305-2.197l8.255-8.256C362.9,149.154,362.9,144.404,359.969,141.474z"
			/>
	</g>
</g>
<g>
	<g>
		<path d="M287.708,213.736c-2.929-2.931-7.679-2.93-10.609,0l-8.255,8.256c-2.93,2.93-2.93,7.68,0.001,10.61
			c1.464,1.464,3.384,2.196,5.304,2.196c1.919,0,3.84-0.733,5.305-2.197l8.255-8.256
			C290.639,221.415,290.639,216.665,287.708,213.736z"/>
	</g>
</g>
<g>
	<g>
		<path d="M359.97,221.99l-8.255-8.255c-2.93-2.93-7.68-2.931-10.609,0c-2.931,2.93-2.931,7.679-0.001,10.609l8.255,8.256
			c1.465,1.465,3.385,2.197,5.305,2.197c1.919,0,3.84-0.733,5.304-2.197C362.899,229.67,362.899,224.92,359.97,221.99z"/>
	</g>
</g>
<g>
	<g>
		<path d="M287.709,149.73l-8.255-8.256c-2.931-2.93-7.681-2.93-10.609,0c-2.931,2.93-2.931,7.68-0.001,10.61l8.255,8.255
			c1.465,1.465,3.385,2.197,5.305,2.197c1.919,0,3.84-0.733,5.304-2.197C290.639,157.409,290.639,152.66,287.709,149.73z"/>
	</g>
</g>
<g>
	<g>
		<path d="M209.939,310.94H85.992c-4.144,0-7.502,3.359-7.502,7.502s3.358,7.502,7.502,7.502H209.94
			c4.144,0,7.502-3.359,7.502-7.502S214.083,310.94,209.939,310.94z"/>
	</g>
</g>
<g>
	<g>
		<path d="M100.626,385.016H85.992c-4.144,0-7.502,3.359-7.502,7.502s3.358,7.502,7.502,7.502h14.634
			c4.144,0,7.502-3.359,7.502-7.502S104.77,385.016,100.626,385.016z"/>
	</g>
</g>
<g>
	<g>
		<path d="M209.939,385.016h-74.253c-4.144,0-7.502,3.359-7.502,7.502s3.358,7.502,7.502,7.502h74.253
			c4.144,0,7.502-3.359,7.502-7.502S214.083,385.016,209.939,385.016z"/>
	</g>
</g>
<g>
	<g>
		<path d="M209.939,347.978H85.992c-4.144,0-7.502,3.359-7.502,7.502s3.358,7.502,7.502,7.502H209.94
			c4.144,0,7.502-3.359,7.502-7.502S214.083,347.978,209.939,347.978z"/>
	</g>
</g>
<g>
	<g>
		<path d="M374.671,126.774c-33.23-33.229-87.298-33.229-120.528,0c-19.267,19.268-27.338,45.539-24.262,70.694h-12.988
			c2.982-31.212-7.453-63.476-31.303-87.326c-42.4-42.399-111.39-42.399-153.791,0c-42.399,42.4-42.399,111.39,0,153.79
			c21.2,21.2,49.048,31.8,76.895,31.8c27.847,0,55.697-10.6,76.897-31.8c14.696-14.697,24.294-32.589,28.802-51.46h18.706
			c3.965,12.749,10.966,24.749,21.044,34.828c16.615,16.614,38.439,24.922,60.264,24.922s43.649-8.307,60.264-24.922
			C407.899,214.071,407.899,160.003,374.671,126.774z M174.98,253.323c-36.549,36.55-96.021,36.55-132.57,0
			s-36.549-96.021,0-132.571c18.275-18.275,42.279-27.412,66.285-27.412c24.006,0,48.01,9.137,66.285,27.412
			C211.53,157.302,211.53,216.773,174.98,253.323z M364.059,236.691c-27.379,27.378-71.928,27.38-99.307,0
			c-27.377-27.379-27.377-71.928,0.001-99.307c13.691-13.691,31.669-20.534,49.653-20.534c17.98,0,35.966,6.846,49.653,20.534
			C391.438,164.763,391.438,209.312,364.059,236.691z"/>
	</g>
</g>
<g>
	<g>
		<path d="M108.696,145.643c-22.824,0-41.393,18.569-41.393,41.394c0,22.824,18.569,41.393,41.393,41.393
			c22.824,0,41.393-18.568,41.393-41.393C150.089,164.212,131.52,145.643,108.696,145.643z M108.695,213.426
			c-14.551,0-26.389-11.838-26.389-26.389c0-14.551,11.838-26.39,26.389-26.39c14.551,0,26.389,11.838,26.389,26.39
			C135.084,201.588,123.246,213.426,108.695,213.426z"/>
	</g>
</g>
<g>
	<g>
		<path d="M314.407,158.783c-15.581,0-28.256,12.675-28.256,28.255s12.675,28.255,28.256,28.255s28.256-12.675,28.256-28.255
			S329.988,158.783,314.407,158.783z M314.407,200.288c-7.307,0-13.252-5.945-13.252-13.251c0-7.306,5.945-13.251,13.252-13.251
			s13.252,5.945,13.252,13.251C327.659,194.344,321.714,200.288,314.407,200.288z"/>
	</g>
</g>
<g>
	<g>
		<path d="M335.051,310.94h-67.332c-5.996,0-10.874,4.878-10.874,10.875v67.332c0,5.996,4.878,10.874,10.874,10.874h67.332
			c5.996,0,10.874-4.878,10.874-10.874v-67.332C345.925,315.819,341.047,310.94,335.051,310.94z M330.921,385.016h-59.072v-59.072
			h59.072V385.016z"/>
	</g>
</g>
<g>
	<g>
		<path d="M505.877,232.628c-3.893-2.969-8.832-3.927-13.554-2.634l-57.526,15.777c-6.739,1.848-11.446,8.02-11.446,15.008v13.692
			h-31.49v-10.992c0-4.143-3.358-7.502-7.502-7.502c-4.144,0-7.502,3.359-7.502,7.502v18.494v67.184v65.585
			c0,2.158-1.755,3.914-3.913,3.914H56.712c-2.158,0-3.914-1.756-3.914-3.914V298.574c0-4.143-3.358-7.502-7.502-7.502
			c-4.144,0-7.502,3.359-7.502,7.502v116.167c0,10.431,8.487,18.918,18.918,18.918h316.232c10.431,0,18.917-8.487,18.917-18.918
			v-58.083h31.491v13.692c0,6.988,4.706,13.159,11.446,15.008l57.526,15.777c1.377,0.378,2.773,0.564,4.156,0.564
			c3.357,0,6.641-1.096,9.397-3.198c3.892-2.969,6.124-7.479,6.124-12.374V245.001C512.001,240.106,509.769,235.596,505.877,232.628
			z M423.352,341.654h-31.491v-52.18h31.491V341.654z M496.997,386.127c0,0.083,0,0.276-0.22,0.443
			c-0.219,0.167-0.405,0.115-0.485,0.094l-57.526-15.777c-0.241-0.066-0.409-0.287-0.409-0.538v-21.194v-67.184v-21.194
			c0-0.251,0.168-0.472,0.409-0.538l57.526-15.777c0.08-0.021,0.267-0.073,0.485,0.094c0.22,0.168,0.22,0.361,0.22,0.443V386.127z"
			/>
	</g>
</g>
<g>
</g>
<g>
</g>
<g>
</g>
<g>
</g>
<g>
</g>
<g>
</g>
<g>
</g>
<g>
</g>
<g>
</g>
<g>
</g>
<g>
</g>
<g>
</g>
<g>
</g>
<g>
</g>
<g>
</g>
</svg>
