<?xml version="1.0" encoding="iso-8859-1"?>
<!-- Generator: Adobe Illustrator 19.0.0, SVG Export Plug-In . SVG Version: 6.00 Build 0)  -->
<svg version="1.1" id="Capa_1" xmlns="http://www.w3.org/2000/svg" xmlns:xlink="http://www.w3.org/1999/xlink" x="0px" y="0px"
	 viewBox="0 0 456 456" style="enable-background:new 0 0 456 456;" xml:space="preserve">
<g>
	<path d="M268,440h-32V306.314l97.154-97.154c0.89,0.042,1.783,0.067,2.676,0.067c16.866,0,33.988-7.448,46.976-20.435
		c14.488-14.489,22.022-34.152,20.153-52.6c-0.383-3.78-3.372-6.77-7.152-7.152c-1.846-0.188-3.736-0.282-5.621-0.282
		c-16.869,0-33.992,7.449-46.979,20.436c-13.209,13.21-20.612,30.719-20.403,47.688L236,283.686V280c0-4.418-3.582-8-8-8
		c-4.418,0-8,3.582-8,8v22.997c0,0.002,0,0.003,0,0.005V440h-32c-4.418,0-8,3.582-8,8s3.582,8,8,8h80c4.418,0,8-3.582,8-8
		S272.418,440,268,440z M354.521,160.508c9.205-9.206,20.94-14.801,32.613-15.639c-0.833,11.585-6.407,23.374-15.644,32.609
		c-9.205,9.206-20.941,14.801-32.612,15.639C339.711,181.533,345.285,169.744,354.521,160.508z"/>
	<path d="M93.745,98.083c-15.886,0-30.818,6.677-39.943,17.859c-2.402,2.943-2.402,7.172,0,10.115
		c9.125,11.183,24.058,17.859,39.943,17.859c15.886,0,30.818-6.677,39.944-17.859c2.402-2.943,2.402-7.172,0-10.115
		C124.563,104.76,109.631,98.083,93.745,98.083z M93.745,127.917c-8.333,0-16.199-2.51-22.195-6.917
		c5.996-4.407,13.862-6.917,22.195-6.917c8.333,0,16.2,2.51,22.195,6.917C109.945,125.407,102.078,127.917,93.745,127.917z"/>
	<path d="M162.942,86.688c1.472,1.201,3.265,1.802,5.058,1.802s3.585-0.601,5.058-1.802c11.875-9.688,18.964-25.556,18.964-42.443
		s-7.089-32.755-18.964-42.443c-2.944-2.402-7.171-2.402-10.115,0c-11.875,9.689-18.964,25.556-18.964,42.443
		S151.067,76.999,162.942,86.688z M168,19.422c5.103,6.615,8.021,15.451,8.021,24.823S173.103,62.453,168,69.068
		c-5.104-6.615-8.022-15.451-8.022-24.823S162.896,26.037,168,19.422z"/>
	<path d="M402.198,237.942c-9.126-11.183-24.058-17.859-39.943-17.859c-15.887,0-30.818,6.677-39.944,17.859
		c-2.402,2.943-2.402,7.172,0,10.115c9.126,11.183,24.058,17.859,39.944,17.859c15.886,0,30.817-6.677,39.943-17.859
		C404.601,245.114,404.601,240.886,402.198,237.942z M362.255,249.917c-8.333,0-16.2-2.51-22.195-6.917
		c5.995-4.407,13.862-6.917,22.195-6.917s16.199,2.51,22.194,6.917C378.454,247.407,370.588,249.917,362.255,249.917z"/>
	<path d="M282.942,208.688c1.472,1.201,3.265,1.802,5.058,1.802s3.586-0.601,5.058-1.802c11.875-9.689,18.964-25.557,18.964-42.443
		s-7.089-32.754-18.964-42.443c-2.943-2.402-7.172-2.402-10.115,0c-11.875,9.689-18.964,25.557-18.964,42.443
		S271.067,198.999,282.942,208.688z M288,141.422c5.104,6.616,8.021,15.451,8.021,24.823s-2.918,18.207-8.021,24.823
		c-5.104-6.616-8.021-15.451-8.021-24.823S282.896,148.038,288,141.422z"/>
	<path d="M193.657,202.343c-3.124-3.123-8.189-3.123-11.313,0c-3.125,3.125-3.125,8.189,0,11.314l40,40
		c0.02,0.02,0.042,0.036,0.061,0.056c0.168,0.165,0.341,0.324,0.523,0.473c0.096,0.079,0.197,0.147,0.296,0.221
		c0.111,0.083,0.219,0.168,0.334,0.245c0.115,0.077,0.234,0.143,0.352,0.214c0.106,0.063,0.21,0.13,0.32,0.189
		c0.119,0.064,0.242,0.118,0.364,0.175c0.115,0.054,0.228,0.112,0.346,0.161c0.117,0.049,0.237,0.088,0.357,0.131
		c0.127,0.046,0.253,0.094,0.383,0.134c0.119,0.036,0.24,0.062,0.36,0.093c0.133,0.033,0.264,0.071,0.399,0.097
		c0.139,0.028,0.279,0.044,0.419,0.064c0.118,0.017,0.234,0.04,0.354,0.051c0.262,0.026,0.526,0.04,0.789,0.04
		c0.264,0,0.527-0.014,0.79-0.04c0.118-0.012,0.233-0.034,0.349-0.05c0.142-0.02,0.284-0.037,0.425-0.065
		c0.133-0.026,0.261-0.063,0.392-0.096c0.123-0.031,0.247-0.058,0.368-0.095c0.126-0.038,0.248-0.086,0.372-0.13
		c0.123-0.044,0.247-0.085,0.368-0.135c0.113-0.047,0.222-0.102,0.332-0.154c0.127-0.06,0.254-0.116,0.378-0.182
		c0.102-0.055,0.199-0.117,0.298-0.176c0.125-0.074,0.251-0.145,0.373-0.227c0.104-0.069,0.201-0.147,0.301-0.221
		c0.11-0.081,0.222-0.158,0.328-0.246c0.144-0.118,0.279-0.246,0.414-0.374c0.055-0.052,0.115-0.099,0.169-0.153
		c0.056-0.056,0.104-0.118,0.159-0.176c0.125-0.133,0.251-0.265,0.367-0.406c0.091-0.111,0.171-0.227,0.255-0.342
		c0.07-0.096,0.145-0.188,0.211-0.287c0.085-0.127,0.159-0.258,0.236-0.388c0.056-0.094,0.115-0.186,0.167-0.283
		c0.069-0.129,0.128-0.262,0.19-0.394c0.049-0.105,0.102-0.209,0.147-0.317c0.052-0.126,0.095-0.256,0.141-0.384
		c0.042-0.118,0.088-0.234,0.124-0.355c0.039-0.129,0.068-0.26,0.1-0.39c0.031-0.123,0.065-0.244,0.09-0.369
		c0.03-0.151,0.048-0.304,0.07-0.457c0.015-0.106,0.035-0.21,0.046-0.317c0.026-0.265,0.04-0.531,0.04-0.797v-66.99
		c0-0.003,0-0.007,0-0.01V97c0-4.418-3.582-8-8-8c-4.418,0-8,3.582-8,8v64.686l-86.803-86.803
		c0.208-16.969-7.195-34.478-20.404-47.687C99.806,14.208,82.683,6.759,65.814,6.759c-1.884,0-3.775,0.095-5.621,0.282
		c-3.781,0.383-6.77,3.372-7.153,7.152c-1.869,18.447,5.665,38.11,20.154,52.6c12.986,12.986,30.108,20.435,46.976,20.435
		c0,0,0,0,0.001,0c0.892,0,1.786-0.025,2.676-0.067L220,184.314v44.372L193.657,202.343z M68.865,22.869
		c11.672,0.838,23.408,6.433,32.613,15.64c9.236,9.235,14.811,21.024,15.643,32.608c-11.671-0.838-23.408-6.433-32.613-15.639
		C75.272,46.243,69.697,34.454,68.865,22.869z"/>
</g>
<g>
</g>
<g>
</g>
<g>
</g>
<g>
</g>
<g>
</g>
<g>
</g>
<g>
</g>
<g>
</g>
<g>
</g>
<g>
</g>
<g>
</g>
<g>
</g>
<g>
</g>
<g>
</g>
<g>
</g>
</svg>
