<?xml version="1.0" encoding="iso-8859-1"?>
<!-- Generator: Adobe Illustrator 19.0.0, SVG Export Plug-In . SVG Version: 6.00 Build 0)  -->
<svg version="1.1" id="Capa_1" xmlns="http://www.w3.org/2000/svg" xmlns:xlink="http://www.w3.org/1999/xlink" x="0px" y="0px"
	 viewBox="0 0 464 464" style="enable-background:new 0 0 464 464;" xml:space="preserve">
<g>
	<path d="M432,78H320v-8c0-22.056-17.944-40-40-40h-96c-22.056,0-40,17.944-40,40v8H32C14.355,78,0,92.355,0,110v272
		c0,17.645,14.355,32,32,32c0,11.028,8.972,20,20,20s20-8.972,20-20h320c0,11.028,8.972,20,20,20s20-8.972,20-20
		c17.645,0,32-14.355,32-32V110C464,92.355,449.645,78,432,78z M160,70c0-13.233,10.767-24,24-24h96c13.233,0,24,10.767,24,24v8H160
		V70z M52,418c-2.206,0-4-1.794-4-4h8C56,416.206,54.206,418,52,418z M412,418c-2.206,0-4-1.794-4-4h8
		C416,416.206,414.206,418,412,418z M448,382c0,8.822-7.178,16-16,16h-47.652c2.542-26.406,19.336-49.341,44.247-59.603
		c4.085-1.683,6.033-6.359,4.35-10.444s-6.358-6.032-10.444-4.35c-30.933,12.743-51.634,41.473-54.221,74.397H95.72
		c-2.587-32.924-23.288-61.654-54.221-74.397c-4.084-1.681-8.761,0.265-10.444,4.35c-1.683,4.085,0.265,8.761,4.35,10.444
		C60.316,348.659,77.11,371.594,79.652,398H32c-8.822,0-16-7.178-16-16V110c0-8.822,7.178-16,16-16h47.559
		c-2.865,25.984-19.557,48.47-44.154,58.604c-4.085,1.683-6.033,6.359-4.35,10.444c1.272,3.088,4.255,4.955,7.4,4.955
		c1.015,0,2.047-0.194,3.044-0.605C72.118,154.783,92.703,126.504,95.627,94h272.746c2.924,32.504,23.508,60.783,54.127,73.397
		c0.997,0.411,2.029,0.605,3.044,0.605c3.145,0,6.127-1.867,7.4-4.955c1.683-4.085-0.265-8.761-4.35-10.444
		c-24.597-10.133-41.289-32.619-44.154-58.604H432c8.822,0,16,7.178,16,16V382z"/>
	<path d="M171.241,265.434c-4.179,1.435-6.403,5.986-4.967,10.165C167.419,278.934,168,282.433,168,286c0,17.645-14.355,32-32,32
		s-32-14.355-32-32s14.355-32,32-32c4.153,0,8.19,0.782,11.999,2.323c4.097,1.657,8.759-0.318,10.417-4.414
		c1.658-4.095-0.318-8.759-4.414-10.417C148.277,239.175,142.22,238,136,238c-26.467,0-48,21.533-48,48s21.533,48,48,48
		s48-21.533,48-48c0-5.339-0.873-10.587-2.594-15.599C179.971,266.223,175.42,263.996,171.241,265.434z"/>
	<path d="M352.517,251.012c-1.65-4.099-6.31-6.085-10.409-4.433l-14.842,5.976c-4.099,1.65-6.083,6.311-4.433,10.409
		c1.65,4.099,6.311,6.085,10.409,4.433l7.421-2.988l17.928,44.526l-74.21,29.88l-17.928-44.526l37.105-14.94
		c4.099-1.65,6.083-6.311,4.433-10.409c-1.65-4.099-6.309-6.083-10.409-4.433l-44.526,17.928c-1.968,0.792-3.541,2.334-4.372,4.286
		s-0.853,4.155-0.061,6.123l23.904,59.368c1.256,3.12,4.255,5.015,7.423,5.014c0.995,0,2.006-0.187,2.985-0.581l89.053-35.856
		c4.098-1.65,6.083-6.311,4.433-10.409L352.517,251.012z"/>
	<path d="M153.501,192.472l119.937,44.712c0.903,0.336,1.849,0.504,2.794,0.504c1.136,0,2.271-0.242,3.325-0.724
		c1.93-0.881,3.43-2.494,4.171-4.482l16.767-44.977c0.741-1.988,0.662-4.189-0.22-6.119c-0.882-1.93-2.494-3.43-4.482-4.171
		l-14.992-5.589c-4.137-1.541-8.747,0.562-10.291,4.702c-1.543,4.14,0.562,8.747,4.702,10.291l7.496,2.794l-11.178,29.984
		l-104.945-39.124l11.178-29.984l67.464,25.151c4.138,1.543,8.747-0.561,10.291-4.702c1.543-4.14-0.562-8.747-4.702-10.291
		l-74.96-27.945c-1.988-0.741-4.19-0.663-6.119,0.22c-1.93,0.881-3.431,2.494-4.172,4.482L148.8,182.182
		c-0.741,1.988-0.662,4.189,0.22,6.119C149.901,190.23,151.513,191.731,153.501,192.472z"/>
</g>
<g>
</g>
<g>
</g>
<g>
</g>
<g>
</g>
<g>
</g>
<g>
</g>
<g>
</g>
<g>
</g>
<g>
</g>
<g>
</g>
<g>
</g>
<g>
</g>
<g>
</g>
<g>
</g>
<g>
</g>
</svg>
